<svg xmlns="http://www.w3.org/2000/svg" width="128" height="128" viewBox="0 0 128 128">
  <rect x="0" y="0" width="128" height="128" fill="white"/>

  <path fill="#333" d="M64 0C28.657 0 0 28.657 0 64c0 28.255 18.256 52.222 43.426 60.339 3.174.59 4.332-1.375 4.332-3.058 0-1.506-.054-5.548-.081-10.887-17.768 3.86-21.572-8.55-21.572-8.55-2.904-7.365-7.078-9.336-7.078-9.336-5.811-3.974.44-3.896.44-3.896 6.438.455 9.842 6.602 9.842 6.602 5.72 9.778 15.018 6.953 18.681 5.313.579-4.132 2.247-6.953 4.096-8.55-14.288-1.625-29.288-7.149-29.288-31.916 0-7.045 2.515-12.81 6.602-17.323-2.618-6.522-2.275-13.687.965-17.189 0 0 5.39-1.733 17.65 6.602 5.12-1.424 10.597-2.135 16.037-2.153 5.438.018 10.916.729 16.035 2.153 12.259-8.335 17.646-6.602 17.646-6.602 3.24 3.502 3.582 10.667.965 17.189 4.088 4.513 6.602 10.278 6.602 17.323 0 24.82-15.006 30.27-29.35 31.868 2.308 1.988 4.316 5.864 4.316 11.829 0 8.55-.081 15.4-.081 17.478 0 1.697 1.157 3.689 4.364 3.056C109.743 116.216 128 92.249 128 64c0-35.343-28.657-64-64-64z"/>
</svg>
