<svg version="1.1" xmlns="http://www.w3.org/2000/svg" width="283" height="172">
<path d="M0 0 C93.39 0 186.78 0 283 0 C283 56.76 283 113.52 283 172 C189.61 172 96.22 172 0 172 C0 115.24 0 58.48 0 0 Z " fill="#FEFDFD" transform="translate(0,0)"/>
<path d="M0 0 C93.39 0 186.78 0 283 0 C283 56.76 283 113.52 283 172 C189.61 172 96.22 172 0 172 C0 115.24 0 58.48 0 0 Z M37 31 C27.62709565 43.34718715 22.39247896 58.02567084 19 73 C18.80792969 73.79664063 18.61585937 74.59328125 18.41796875 75.4140625 C14.9383745 96.94201945 21.53086374 118.34697816 33.25 136.3125 C41.6330251 147.43283942 51.67854082 157.67184907 66 160 C68.2414243 160.0959414 70.48535869 160.1390853 72.7288208 160.14717102 C73.39236187 160.15084771 74.05590293 160.1545244 74.73955131 160.1583125 C76.95560727 160.16929632 79.17161627 160.1731841 81.38769531 160.17700195 C82.97972256 160.18327055 84.57174837 160.1899177 86.16377258 160.19691467 C91.38521312 160.21790823 96.60665379 160.22831185 101.828125 160.23828125 C103.62861903 160.2423304 105.42911291 160.24644737 107.22960663 160.25063133 C115.68875288 160.26967173 124.14789045 160.28390584 132.607054 160.2922433 C142.35952365 160.3020153 152.11176632 160.32833867 161.86415601 160.36874419 C169.41083377 160.39893445 176.95744656 160.41371489 184.50418353 160.41702431 C189.00766508 160.41937122 193.5109038 160.42828498 198.01432037 160.45348549 C202.2530191 160.47682268 206.49131608 160.4809769 210.73006248 160.47072411 C212.28080522 160.47023003 213.83156813 160.47651265 215.38224983 160.49028015 C227.02025252 160.58777935 235.37022708 159.15564502 244.03125 151.02734375 C261.15712078 133.39177443 268.57904876 109.59500663 268.48950195 85.34448242 C267.87911208 63.55262474 257.66887912 42.66448792 241.921875 27.7109375 C231.05535718 18.03708627 219.89257719 16.40081603 205.67163086 16.46655273 C204.0507784 16.45948183 202.42993253 16.45073193 200.80909729 16.44044495 C196.43720621 16.41807611 192.06567927 16.4208606 187.693753 16.42976642 C184.03323049 16.43490035 180.37277496 16.42756458 176.71225935 16.42029434 C168.07365615 16.40333615 159.43522978 16.40682117 150.79663086 16.42358398 C141.90493215 16.44051544 133.01372402 16.42464751 124.12207884 16.3923611 C116.46567639 16.36562033 108.80942625 16.35840088 101.15298182 16.36687618 C96.58974562 16.37179059 92.02680467 16.36967017 87.46360588 16.34908867 C83.17298679 16.33065976 78.88307111 16.33677744 74.59248924 16.36128807 C73.02444047 16.36627252 71.4563374 16.36286805 69.88833237 16.35013962 C55.40224549 16.24190976 46.39086899 19.78361629 37 31 Z " fill="#F71924" transform="translate(0,0)"/>
<path d="M0 0 C0.33 0.66 0.66 1.32 1 2 C1.99 2.4640625 1.99 2.4640625 3 2.9375 C5 4 5 4 6 7 C7.98 6.01 9.96 5.02 12 4 C12.33 5.65 12.66 7.3 13 9 C12.01 9 11.02 9 10 9 C9.938125 9.78375 9.87625 10.5675 9.8125 11.375 C9.544375 12.24125 9.27625 13.1075 9 14 C7.33333333 14.66666667 5.66666667 15.33333333 4 16 C3.855625 16.804375 3.71125 17.60875 3.5625 18.4375 C3 21 3 21 0.46883869 22.63592625 C-3.48502872 24.19073096 -6.88483493 24.42184662 -11.06391907 24.38768005 C-11.85898823 24.39306559 -12.6540574 24.39845113 -13.47321957 24.40399987 C-16.12854559 24.41826935 -18.78337238 24.41117825 -21.4387207 24.40405273 C-23.34616496 24.40975692 -25.2536058 24.41672136 -27.16104126 24.42485046 C-32.33679425 24.4427939 -37.5123778 24.44161096 -42.68815255 24.43590808 C-47.01208885 24.43281723 -51.33599255 24.43890769 -55.65992421 24.44494683 C-65.8637238 24.45899502 -76.06743967 24.45742895 -86.27124023 24.44604492 C-96.78906 24.43456965 -107.3066246 24.44862885 -117.82441074 24.4754414 C-126.8615585 24.49761473 -135.89862627 24.50423189 -144.9357993 24.49836498 C-150.3301337 24.49499738 -155.72430464 24.49739728 -161.1186161 24.51461601 C-166.19371124 24.53010848 -171.26842931 24.52610391 -176.34350967 24.50731087 C-178.20223736 24.50363104 -180.06099312 24.50671571 -181.9196949 24.51719666 C-200.88164316 24.61592505 -200.88164316 24.61592505 -207 20 C-208.72470206 18.05530803 -209.78349293 16.32723091 -211 14 C-209.35 13.67 -207.7 13.34 -206 13 C-206 13.99 -206 14.98 -206 16 C-205.34 16 -204.68 16 -204 16 C-204 15.34 -204 14.68 -204 14 C-202.2984375 13.5978125 -202.2984375 13.5978125 -200.5625 13.1875 C-199.386875 12.795625 -198.21125 12.40375 -197 12 C-196.67 11.01 -196.34 10.02 -196 9 C-193.5575389 9.58619066 -191.19695862 10.25708224 -188.80126095 11.02403069 C-184.9377888 12.01597265 -181.72199188 12.24642675 -177.74232483 12.24050903 C-177.04622351 12.24221788 -176.35012218 12.24392673 -175.63292688 12.24568737 C-173.31906063 12.24896063 -171.00548957 12.23801469 -168.69165039 12.22705078 C-167.02561449 12.2264862 -165.35957809 12.22680415 -163.69354248 12.22793579 C-159.18372637 12.22850847 -154.67401714 12.21676794 -150.16422582 12.20278788 C-145.44635771 12.19026632 -140.72848702 12.18910889 -136.01060486 12.18673706 C-127.08244905 12.18052648 -118.15434235 12.16412137 -109.22620815 12.14403808 C-99.05937795 12.12166595 -88.89254538 12.11068234 -78.72569668 12.10064721 C-57.81710374 12.07975478 -36.90855496 12.044587 -16 12 C-16 11.34 -16 10.68 -16 10 C-15.46890625 9.75765625 -14.9378125 9.5153125 -14.390625 9.265625 C-10.20169267 7.27817536 -7.19422971 5.42238897 -4 2 C-1.75 0.75 -1.75 0.75 0 0 Z " fill="#FE1520" transform="translate(248,148)"/>
<path d="M0 0 C1.10723813 -0.00779995 2.21447625 -0.01559991 3.35526705 -0.02363622 C7.07893572 -0.04363767 10.80159164 -0.02775864 14.52526855 -0.01205444 C17.18931582 -0.01882694 19.85329245 -0.02754645 22.51731873 -0.03860474 C29.00999409 -0.06085717 35.50238072 -0.05602721 41.99506748 -0.04154153 C47.27099218 -0.03025709 52.54683586 -0.02871492 57.82276917 -0.03416061 C58.57319521 -0.03492678 59.32362125 -0.03569294 60.09678748 -0.03648233 C61.62118545 -0.03808093 63.14558339 -0.03970199 64.6699813 -0.04134528 C78.96981905 -0.05560865 93.26949662 -0.03920092 107.5693081 -0.01234345 C119.84360822 0.00999591 132.11767192 0.00611595 144.39196777 -0.01693726 C158.64004711 -0.04368496 172.88798601 -0.0542353 187.13608694 -0.03887594 C188.6549285 -0.03728316 190.17377009 -0.03571131 191.69261169 -0.03416061 C192.81360832 -0.03300355 192.81360832 -0.03300355 193.95725134 -0.03182311 C199.22784719 -0.027503 204.49835408 -0.03479931 209.76893616 -0.04655838 C216.19065472 -0.06057056 222.61206765 -0.05681085 229.03375113 -0.03015466 C232.31135676 -0.01699858 235.58834617 -0.01457743 238.86596489 -0.02840042 C242.41628424 -0.04199644 245.96515469 -0.02500961 249.51538086 0 C251.07548157 -0.01673041 251.07548157 -0.01673041 252.66709948 -0.03379881 C259.61859557 0.06166086 259.61859557 0.06166086 262.89902115 3.00414753 C264.46572738 6.03773699 264.74252969 7.93897013 264.71179199 11.34317017 C264.71133881 13.02434685 264.71133881 13.02434685 264.71087646 14.73948669 C264.69023132 15.93861191 264.66958618 17.13773712 264.64831543 18.37319946 C264.64265564 19.60910324 264.63699585 20.84500702 264.63116455 22.11836243 C264.61259328 25.39183419 264.57670398 28.664509 264.53234863 31.93771362 C264.49130746 35.2826707 264.47347631 38.62766258 264.45300293 41.97280884 C264.40892475 48.5271559 264.34200277 55.0809719 264.25769043 61.63491821 C262.68583544 58.54088033 261.35263863 55.42323502 260.07019043 52.19741821 C255.72279582 41.74327281 250.55752533 32.30240368 243.25769043 23.63491821 C242.80007324 23.03292603 242.34245605 22.43093384 241.87097168 21.81069946 C234.23169117 12.07006959 222.40028747 5.03727273 210.25769043 2.63491821 C207.87913691 2.54023141 205.49806544 2.50429816 203.11763 2.50120544 C202.39777363 2.49893989 201.67791726 2.49667433 200.93624705 2.49434012 C198.52360315 2.48800905 196.11101555 2.48882892 193.69836426 2.48965454 C191.96855598 2.48666242 190.23874838 2.48325976 188.50894165 2.47947693 C183.80830734 2.47063626 179.10769123 2.46829873 174.40704942 2.46766114 C171.46883533 2.46695046 168.53062588 2.46481575 165.59241295 2.46216393 C155.33752524 2.45290896 145.08265054 2.44882906 134.82775879 2.44961548 C125.27685276 2.45021571 115.72600331 2.439675 106.17511159 2.42387182 C97.97028457 2.41078093 89.76547599 2.40543226 81.56063861 2.40607089 C76.6626316 2.4063255 71.76467482 2.40349478 66.86667824 2.39289284 C62.25626785 2.38318629 57.64595545 2.3831502 53.03554153 2.39040947 C51.34774443 2.39145227 49.65994115 2.3891106 47.97215462 2.38304901 C34.15824481 2.33666984 22.59385164 2.97728175 11.90612793 12.79507446 C-1.81473394 27.29392334 -8.10723215 44.94814944 -13.74230957 63.63491821 C-14.07230957 63.63491821 -14.40230957 63.63491821 -14.74230957 63.63491821 C-14.8351132 56.15912262 -14.90612658 48.68345185 -14.94955826 41.20719624 C-14.97040669 37.73538637 -14.99867252 34.26397148 -15.04406738 30.79238892 C-15.09596396 26.79845452 -15.11527731 22.80493306 -15.13293457 18.81069946 C-15.15357971 17.56782669 -15.17422485 16.32495392 -15.19549561 15.04441833 C-15.19579773 13.88359238 -15.19609985 12.72276642 -15.19641113 11.52676392 C-15.20529358 10.5075032 -15.21417603 9.48824249 -15.22332764 8.43809509 C-13.69337367 -0.47785189 -7.53707035 -0.08082702 0 0 Z " fill="#FDF9F9" transform="translate(17.7423095703125,0.365081787109375)"/>
<path d="M0 0 C0.75697174 -0.00761353 1.51394348 -0.01522705 2.29385376 -0.02307129 C3.89248362 -0.03385685 5.49118385 -0.03673164 7.08984375 -0.03222656 C9.52464614 -0.03125575 11.95627871 -0.07285501 14.390625 -0.1171875 C15.94791013 -0.12239628 17.50520616 -0.12508266 19.0625 -0.125 C19.78456635 -0.14139526 20.50663269 -0.15779053 21.25057983 -0.17468262 C26.98829964 -0.09700613 29.27194815 1.56631565 33.1640625 5.46875 C36.40721621 10.1553883 35.73436587 16.02304835 35.1640625 21.46875 C34.26761207 24.4584584 33.25007043 27.11877193 31.1640625 29.46875 C29.0234375 30.17578125 29.0234375 30.17578125 27.1640625 30.46875 C28.1540625 32.11875 29.1440625 33.76875 30.1640625 35.46875 C22.60798222 35.84655401 22.60798222 35.84655401 20.39697266 33.96484375 C17.50943814 32.0301388 15.74803189 32.15541678 12.296875 32.23828125 C11.16378906 32.23892578 10.03070313 32.23957031 8.86328125 32.24023438 C6.4879751 32.26749199 4.11280964 32.31424719 1.73828125 32.38085938 C-6.79118666 32.33729229 -6.79118666 32.33729229 -9.95800781 29.70458984 C-11.48654847 27.68463477 -12.71375766 25.7359229 -13.8359375 23.46875 C-14.1659375 22.80875 -14.4959375 22.14875 -14.8359375 21.46875 C-15.51860597 15.25909259 -14.82490138 9.02286946 -11.8359375 3.46875 C-8.33579642 -0.06826892 -4.71257644 0.00130722 0 0 Z " fill="#E61F26" transform="translate(189.8359375,72.53125)"/>
<path d="M0 0 C1.56040859 3.02468413 2.76961994 6.06621266 3.90112305 9.27807617 C10.4384355 27.65090067 21.03638995 48.0609195 39.00390625 57.59375 C41.64547767 58.8082656 44.29068805 59.94666003 47 61 C47 61.33 47 61.66 47 62 C31.82 62 16.64 62 1 62 C-0.05946564 58.82160309 -0.12064296 56.58154652 -0.11352539 53.2434082 C-0.11344986 52.06241043 -0.11337433 50.88141266 -0.11329651 49.66462708 C-0.10813522 48.38955795 -0.10297394 47.11448883 -0.09765625 45.80078125 C-0.0962413 44.49545944 -0.09482635 43.19013763 -0.09336853 41.84526062 C-0.0895538 38.37810344 -0.07973244 34.91098826 -0.06866455 31.44384766 C-0.05842798 27.90462818 -0.0538661 24.3654019 -0.04882812 20.82617188 C-0.03810923 13.88409735 -0.02104534 6.94205069 0 0 Z " fill="#FEF9F9" transform="translate(3,110)"/>
<path d="M0 0 C93.39 0 186.78 0 283 0 C283 56.76 283 113.52 283 172 C282.34 172 281.68 172 281 172 C281.00276538 171.14816761 281.00553076 170.29633522 281.00837994 169.41868973 C281.07459441 148.70451879 281.12425847 127.99036605 281.15543652 107.2761116 C281.17091422 97.25890557 281.19202098 87.24177011 281.22631836 77.22460938 C281.25619308 68.49501396 281.27556843 59.76546965 281.28226548 51.03582454 C281.28618101 46.41229982 281.29540178 41.78892133 281.31719017 37.16544342 C281.33752489 32.81526449 281.34383993 28.46529229 281.33932304 24.11507034 C281.3401496 22.51708224 281.34613324 20.91908735 281.35761642 19.32114029 C281.37251376 17.14151159 281.36896425 14.96266635 281.36076355 12.78302002 C281.36352893 11.56256611 281.36629431 10.3421122 281.36914349 9.08467484 C280.95672376 5.63837066 280.37133695 4.47171929 278 2 C275.85101817 1.40295099 275.85101817 1.40295099 273.40692902 1.49663544 C272.45880577 1.48620445 271.51068252 1.47577346 270.53382826 1.46502638 C269.49016615 1.47394927 268.44650405 1.48287215 267.37121582 1.49206543 C266.26412655 1.48582547 265.15703729 1.4795855 264.01639986 1.47315645 C260.28741262 1.45713543 256.55907081 1.46986679 252.83007812 1.48242188 C250.16456682 1.4770048 247.49910077 1.47002986 244.83360291 1.46118164 C238.33380671 1.44336913 231.83419498 1.44724846 225.33439147 1.4588322 C220.05319888 1.46785557 214.77205808 1.4690953 209.49085999 1.46473694 C208.3645846 1.46381754 208.3645846 1.46381754 207.21555617 1.46287957 C205.69035095 1.4616007 204.16514575 1.46030385 202.63994056 1.4589892 C188.32871452 1.44757541 174.01759087 1.4607096 159.70638162 1.48219067 C147.41927474 1.5000624 135.132319 1.49695852 122.84521484 1.47851562 C108.58617967 1.45712298 94.3272343 1.44867412 80.06818533 1.46096468 C78.54850357 1.46223891 77.0288218 1.4634964 75.50914001 1.46473694 C74.76137323 1.46535404 74.01360645 1.46597114 73.24318007 1.46660694 C67.96662799 1.47006468 62.69013275 1.46422242 57.41358948 1.45481873 C50.98563739 1.44361515 44.55788074 1.44660394 38.12995112 1.4679417 C34.84849813 1.47847459 31.56743978 1.48039339 28.28597832 1.46934509 C24.73325049 1.45848286 21.1814521 1.47204129 17.62878418 1.49206543 C16.06329102 1.4786811 16.06329102 1.4786811 14.46617174 1.46502638 C13.51804849 1.47545737 12.56992524 1.48588836 11.59307098 1.49663544 C10.36236854 1.49760955 10.36236854 1.49760955 9.10680342 1.49860334 C6.83674936 1.83786284 6.83674936 1.83786284 5.23600453 3.83866811 C3.49000966 6.89179155 3.63129319 9.27739422 3.63923645 12.78302002 C3.63667318 13.46430741 3.6341099 14.1455948 3.63146895 14.84752727 C3.62652924 17.12938689 3.64302634 19.4105842 3.65942383 21.69238281 C3.66027006 23.32841984 3.65979503 24.96445802 3.65809631 26.60049438 C3.65723479 31.04236427 3.6748859 35.48399162 3.69581819 39.92580509 C3.71455886 44.56761003 3.71633337 49.20942039 3.71989441 53.85125732 C3.72922255 62.64142088 3.75384674 71.43147264 3.78394288 80.22158694 C3.81746296 90.22872869 3.83396688 100.23587574 3.84902918 110.24305964 C3.88039561 130.82876885 3.93317107 151.41437738 4 172 C2.68 172 1.36 172 0 172 C0 115.24 0 58.48 0 0 Z " fill="#291516" transform="translate(0,0)"/>
<path d="M0 0 C0.33 0 0.66 0 1 0 C1.0252899 7.51138594 1.04284141 15.02276097 1.05493164 22.53417969 C1.05997017 25.09115001 1.06680107 27.64811743 1.07543945 30.20507812 C1.08752602 33.87370517 1.09323301 37.54229423 1.09765625 41.2109375 C1.10281754 42.35992523 1.10797882 43.50891296 1.11329651 44.69271851 C1.11337204 45.7536673 1.11344757 46.81461609 1.11352539 47.90771484 C1.115746 48.84481293 1.11796661 49.78191101 1.12025452 50.74740601 C1 53 1 53 0 55 C-11.88 55 -23.76 55 -36 55 C-32 52 -32 52 -29.08203125 50.16796875 C-12.85316544 38.75222664 -5.42927881 18.20405249 0 0 Z " fill="#FDFAFA" transform="translate(281,117)"/>
<path d="M0 0 C4.50337952 -0.09185363 9.00350992 -0.1714723 13.50708008 -0.21972656 C15.03876762 -0.2398398 16.57037839 -0.2671345 18.10180664 -0.30175781 C20.30374073 -0.35029315 22.50465982 -0.37296996 24.70703125 -0.390625 C25.39150833 -0.41127014 26.07598541 -0.43191528 26.78120422 -0.45318604 C29.99177687 -0.45470061 31.57542515 -0.41115423 33.9309082 1.86987305 C35.21435533 4.42709529 35.40082733 6.20858034 35.375 9.0625 C35.38660156 10.34833984 35.38660156 10.34833984 35.3984375 11.66015625 C34.91617755 14.49225144 34.26073302 15.27631894 32 17 C28.88246542 18.85704731 26.62747417 19.23935944 23.015625 19.1953125 C22.08105469 19.18886719 21.14648438 19.18242188 20.18359375 19.17578125 C19.21550781 19.15902344 18.24742188 19.14226562 17.25 19.125 C16.26644531 19.11597656 15.28289063 19.10695313 14.26953125 19.09765625 C11.84624974 19.07412925 9.42309369 19.03825937 7 19 C7 22.96 7 26.92 7 31 C4.69 31 2.38 31 0 31 C0 20.77 0 10.54 0 0 Z " fill="#E01D27" transform="translate(29,73)"/>
<path d="M0 0 C0.69891357 -0.0038269 1.39782715 -0.00765381 2.11791992 -0.01159668 C3.59392743 -0.01431568 5.06998313 -0.00695498 6.54589844 0.00976562 C8.80512921 0.03118013 11.06118061 0.00996865 13.3203125 -0.015625 C14.75521535 -0.01298172 16.19011622 -0.00785671 17.625 0 C18.93082031 0.00451172 20.23664063 0.00902344 21.58203125 0.01367188 C24.8125 0.53125 24.8125 0.53125 26.73461914 2.3984375 C28.83211505 6.54877143 28.42210373 11.0174426 27.8125 15.53125 C26.1875 18.21875 26.1875 18.21875 23.8125 19.53125 C20.9375 20.15625 20.9375 20.15625 17.8125 19.53125 C16.21855363 18.06837084 14.83553028 16.48665027 13.40234375 14.8671875 C11.66023739 13.14716669 11.66023739 13.14716669 7.9375 13.15625 C6.90625 13.28 5.875 13.40375 4.8125 13.53125 C6.4625 15.51125 8.1125 17.49125 9.8125 19.53125 C7.04063012 19.63912818 4.27294463 19.71848327 1.5 19.78125 C0.71431641 19.81476563 -0.07136719 19.84828125 -0.88085938 19.8828125 C-6.64433093 19.98091414 -6.64433093 19.98091414 -9.20703125 17.859375 C-10.37241665 15.09216505 -10.58723304 13.032192 -10.5625 10.03125 C-10.57023438 9.0928125 -10.57796875 8.154375 -10.5859375 7.1875 C-9.58916523 0.54235156 -6.211069 0.02145976 0 0 Z " fill="#FEF6F5" transform="translate(191.1875,78.46875)"/>
<path d="M0 0 C0.66022156 0.00565979 1.32044312 0.01131958 2.00067139 0.01715088 C4.10015763 0.0394627 6.1979087 0.08964186 8.296875 0.140625 C9.7239336 0.16069706 11.15101908 0.17894661 12.578125 0.1953125 C16.06826793 0.23930807 19.55740199 0.30829624 23.046875 0.390625 C21.45986676 3.07200034 20.5100159 4.58073216 18.046875 6.390625 C14.09124514 7.15302923 10.24436613 6.95669361 6.234375 6.765625 C4.62272461 6.72501953 4.62272461 6.72501953 2.97851562 6.68359375 C0.33257932 6.61303545 -2.3092374 6.51451256 -4.953125 6.390625 C-4.995846 8.05674405 -4.99376332 9.72445385 -4.953125 11.390625 C-3.28739649 13.05635351 -1.25170158 12.53895369 1.03515625 12.56640625 C2.05158203 12.59025391 3.06800781 12.61410156 4.11523438 12.63867188 C6.26607858 12.68140388 8.41718037 12.71278238 10.56835938 12.73242188 C11.58865234 12.76013672 12.60894531 12.78785156 13.66015625 12.81640625 C15.06454956 12.83828003 15.06454956 12.83828003 16.49731445 12.8605957 C19.80883659 13.54902954 21.01037934 14.72832967 23.046875 17.390625 C23.64263679 22.75248111 23.49068376 26.01963696 20.046875 30.390625 C17.08877024 31.86967738 14.0921595 31.51253403 10.8515625 31.48828125 C10.14411896 31.4868663 9.43667542 31.48545135 8.70779419 31.48399353 C6.44577831 31.478391 4.18386102 31.46583818 1.921875 31.453125 C0.38932435 31.44811032 -1.14322786 31.44354736 -2.67578125 31.43945312 C-6.43493388 31.42842077 -10.19401272 31.41115452 -13.953125 31.390625 C-7.828125 25.265625 -7.828125 25.265625 -2.60546875 25.07421875 C-1.52587891 25.03232422 -0.44628906 24.99042969 0.66601562 24.94726562 C1.80232422 24.90794922 2.93863281 24.86863281 4.109375 24.828125 C5.81963867 24.76334961 5.81963867 24.76334961 7.56445312 24.69726562 C10.39179695 24.59079661 13.21923238 24.48878293 16.046875 24.390625 C16.376875 22.410625 16.706875 20.430625 17.046875 18.390625 C16.3763208 18.41680908 15.7057666 18.44299316 15.01489258 18.4699707 C11.96329372 18.57419738 8.91206958 18.63903123 5.859375 18.703125 C4.80427734 18.74501953 3.74917969 18.78691406 2.66210938 18.83007812 C-5.14657403 18.95324348 -5.14657403 18.95324348 -9.15625 16.15625 C-10.9626714 13.37593185 -11.61211513 12.0917619 -11.515625 8.828125 C-11.51691406 8.08433594 -11.51820313 7.34054688 -11.51953125 6.57421875 C-9.93407351 0.46200581 -5.64998091 -0.09576239 0 0 Z " fill="#E11921" transform="translate(147.953125,72.609375)"/>
<path d="M0 0 C93.39 0 186.78 0 283 0 C283 56.76 283 113.52 283 172 C282.34 172 281.68 172 281 172 C281.00276538 171.14816761 281.00553076 170.29633522 281.00837994 169.41868973 C281.07459441 148.70451879 281.12425847 127.99036605 281.15543652 107.2761116 C281.17091422 97.25890557 281.19202098 87.24177011 281.22631836 77.22460938 C281.25619308 68.49501396 281.27556843 59.76546965 281.28226548 51.03582454 C281.28618101 46.41229982 281.29540178 41.78892133 281.31719017 37.16544342 C281.33752489 32.81526449 281.34383993 28.46529229 281.33932304 24.11507034 C281.3401496 22.51708224 281.34613324 20.91908735 281.35761642 19.32114029 C281.37251376 17.14151159 281.36896425 14.96266635 281.36076355 12.78302002 C281.36352893 11.56256611 281.36629431 10.3421122 281.36914349 9.08467484 C280.95672376 5.63837066 280.37133695 4.47171929 278 2 C275.85101817 1.40295099 275.85101817 1.40295099 273.40692902 1.49663544 C272.45880577 1.48620445 271.51068252 1.47577346 270.53382826 1.46502638 C269.49016615 1.47394927 268.44650405 1.48287215 267.37121582 1.49206543 C266.26412655 1.48582547 265.15703729 1.4795855 264.01639986 1.47315645 C260.28741262 1.45713543 256.55907081 1.46986679 252.83007812 1.48242188 C250.16456682 1.4770048 247.49910077 1.47002986 244.83360291 1.46118164 C238.33380671 1.44336913 231.83419498 1.44724846 225.33439147 1.4588322 C220.05319888 1.46785557 214.77205808 1.4690953 209.49085999 1.46473694 C208.3645846 1.46381754 208.3645846 1.46381754 207.21555617 1.46287957 C205.69035095 1.4616007 204.16514575 1.46030385 202.63994056 1.4589892 C188.32871452 1.44757541 174.01759087 1.4607096 159.70638162 1.48219067 C147.41927474 1.5000624 135.132319 1.49695852 122.84521484 1.47851562 C108.58617967 1.45712298 94.3272343 1.44867412 80.06818533 1.46096468 C78.54850357 1.46223891 77.0288218 1.4634964 75.50914001 1.46473694 C74.76137323 1.46535404 74.01360645 1.46597114 73.24318007 1.46660694 C67.96662799 1.47006468 62.69013275 1.46422242 57.41358948 1.45481873 C50.98563739 1.44361515 44.55788074 1.44660394 38.12995112 1.4679417 C34.84849813 1.47847459 31.56743978 1.48039339 28.28597832 1.46934509 C24.73325049 1.45848286 21.1814521 1.47204129 17.62878418 1.49206543 C16.06329102 1.4786811 16.06329102 1.4786811 14.46617174 1.46502638 C13.51804849 1.47545737 12.56992524 1.48588836 11.59307098 1.49663544 C10.36236854 1.49760955 10.36236854 1.49760955 9.10680342 1.49860334 C6.25132113 2.17817756 5.50138316 3.56331782 4 6 C2.68 5.67 1.36 5.34 0 5 C0 3.35 0 1.7 0 0 Z " fill="#252425" transform="translate(0,0)"/>
<path d="M0 0 C1.02574883 0.00424484 1.02574883 0.00424484 2.07221985 0.00857544 C4.2527529 0.01975566 6.4328727 0.04485559 8.61328125 0.0703125 C10.09309302 0.08034512 11.57291124 0.08947048 13.05273438 0.09765625 C16.67721725 0.11968769 20.30145891 0.15420248 23.92578125 0.1953125 C24.98828125 2.5703125 24.98828125 2.5703125 25.92578125 5.1953125 C25.59578125 5.8553125 25.26578125 6.5153125 24.92578125 7.1953125 C24.26578125 7.1953125 23.60578125 7.1953125 22.92578125 7.1953125 C23.58578125 7.8553125 24.24578125 8.5153125 24.92578125 9.1953125 C25.91578125 8.2053125 26.90578125 7.2153125 27.92578125 6.1953125 C28.91578125 6.5253125 29.90578125 6.8553125 30.92578125 7.1953125 C30.59578125 8.1646875 30.26578125 9.1340625 29.92578125 10.1328125 C28.30324304 15.7944352 28.32870713 21.53528182 29.92578125 27.1953125 C28.27578125 27.1953125 26.62578125 27.1953125 24.92578125 27.1953125 C24.59578125 28.5153125 24.26578125 29.8353125 23.92578125 31.1953125 C22.93578125 31.1953125 21.94578125 31.1953125 20.92578125 31.1953125 C21.25578125 30.7003125 21.58578125 30.2053125 21.92578125 29.6953125 C23.412461 25.97861311 23.24370223 23.2011169 22.92578125 19.1953125 C21.80850856 17.37461464 21.80850856 17.37461464 19.92578125 16.1953125 C17.44842625 15.72341836 17.44842625 15.72341836 14.671875 15.75390625 C13.14336914 15.71426758 13.14336914 15.71426758 11.58398438 15.67382812 C10.52115234 15.66029297 9.45832031 15.64675781 8.36328125 15.6328125 C6.25765428 15.59846088 4.1521401 15.55590456 2.046875 15.50390625 C1.11286865 15.49157959 0.1788623 15.47925293 -0.78344727 15.46655273 C-3.07421875 15.1953125 -3.07421875 15.1953125 -5.07421875 13.1953125 C-4.69921875 10.5703125 -4.69921875 10.5703125 -4.07421875 8.1953125 C-3.06053223 8.18129395 -3.06053223 8.18129395 -2.02636719 8.16699219 C1.04175235 8.11323949 4.10835512 8.02960258 7.17578125 7.9453125 C8.23925781 7.93113281 9.30273438 7.91695313 10.3984375 7.90234375 C11.42324219 7.87011719 12.44804687 7.83789062 13.50390625 7.8046875 C14.91784668 7.7732666 14.91784668 7.7732666 16.36035156 7.74121094 C19.59400956 7.05312003 20.82331138 5.6784765 22.92578125 3.1953125 C18.86906442 3.12099272 14.81261279 3.06663117 10.75537109 3.03051758 C9.37606907 3.01545828 7.99681472 2.99500637 6.61767578 2.96899414 C4.63204722 2.93248835 2.64606507 2.91716397 0.66015625 2.90234375 C-0.53383789 2.8866333 -1.72783203 2.87092285 -2.95800781 2.85473633 C-6.30915246 3.22098882 -7.65007267 3.9207079 -10.07421875 6.1953125 C-10.07421875 4.8753125 -10.07421875 3.5553125 -10.07421875 2.1953125 C-6.34881213 -0.28829191 -4.44358902 -0.0362742 0 0 Z " fill="#FEF1F1" transform="translate(147.07421875,70.8046875)"/>
<path d="M0 0 C4.37851608 -0.04587502 8.75620083 -0.08570968 13.13476562 -0.10986328 C14.6247032 -0.11993043 16.11462097 -0.13358518 17.60449219 -0.15087891 C19.74419028 -0.17509653 21.88362753 -0.18647564 24.0234375 -0.1953125 C25.31169434 -0.20578613 26.59995117 -0.21625977 27.92724609 -0.22705078 C31 0 31 0 33 2 C33.1953125 4.3828125 33.1953125 4.3828125 33.125 7.125 C33.10695312 8.03507812 33.08890625 8.94515625 33.0703125 9.8828125 C33.04710937 10.58148438 33.02390625 11.28015625 33 12 C32.34 12 31.68 12 31 12 C30.67 12.66 30.34 13.32 30 14 C30 11.36 30 8.72 30 6 C22.08 6 14.16 6 6 6 C6 8.97 6 11.94 6 15 C3.525 14.01 3.525 14.01 1 13 C1 18.61 1 24.22 1 30 C0.67 30 0.34 30 0 30 C0 20.1 0 10.2 0 0 Z " fill="#D92026" transform="translate(30,73)"/>
<path d="M0 0 C0.66022156 0.00565979 1.32044312 0.01131958 2.00067139 0.01715088 C4.10015763 0.0394627 6.1979087 0.08964186 8.296875 0.140625 C9.7239336 0.16069706 11.15101908 0.17894661 12.578125 0.1953125 C16.06826793 0.23930807 19.55740199 0.30829624 23.046875 0.390625 C21.45986676 3.07200034 20.5100159 4.58073216 18.046875 6.390625 C14.09124514 7.15302923 10.24436613 6.95669361 6.234375 6.765625 C4.62272461 6.72501953 4.62272461 6.72501953 2.97851562 6.68359375 C0.33257932 6.61303545 -2.3092374 6.51451256 -4.953125 6.390625 C-4.995846 8.05674405 -4.99376332 9.72445385 -4.953125 11.390625 C-3.28739649 13.05635351 -1.25170158 12.53895369 1.03515625 12.56640625 C2.05158203 12.59025391 3.06800781 12.61410156 4.11523438 12.63867188 C6.26607858 12.68140388 8.41718037 12.71278238 10.56835938 12.73242188 C11.58865234 12.76013672 12.60894531 12.78785156 13.66015625 12.81640625 C15.06454956 12.83828003 15.06454956 12.83828003 16.49731445 12.8605957 C19.7649692 13.53990993 20.97570157 14.82817915 23.046875 17.390625 C23.68430049 20.25363778 23.33547968 22.40837664 23.046875 25.390625 C22.386875 26.050625 21.726875 26.710625 21.046875 27.390625 C20.99789062 26.69195312 20.94890625 25.99328125 20.8984375 25.2734375 C20.82367188 24.36335938 20.74890625 23.45328125 20.671875 22.515625 C20.60226563 21.61070313 20.53265625 20.70578125 20.4609375 19.7734375 C20.25119368 17.21120597 20.25119368 17.21120597 18.046875 15.390625 C15.67265654 15.05253943 15.67265654 15.05253943 12.92578125 15.046875 C11.39920898 15.00240234 11.39920898 15.00240234 9.84179688 14.95703125 C8.77509766 14.93511719 7.70839844 14.91320312 6.609375 14.890625 C4.50631251 14.84726289 2.40340093 14.79555179 0.30078125 14.734375 C-0.63435303 14.71568359 -1.5694873 14.69699219 -2.53295898 14.67773438 C-4.953125 14.390625 -4.953125 14.390625 -7.953125 12.390625 C-8.613125 13.380625 -9.273125 14.370625 -9.953125 15.390625 C-11.10305866 13.09075769 -11.1848179 11.57593412 -11.265625 9.015625 C-11.30300781 8.24476562 -11.34039062 7.47390625 -11.37890625 6.6796875 C-10.21411726 0.41761093 -5.55742688 -0.09419368 0 0 Z " fill="#D72C31" transform="translate(147.953125,72.609375)"/>
<path d="M0 0 C1.65 0 3.3 0 5 0 C5 8.58 5 17.16 5 26 C11.93 26 18.86 26 26 26 C25 30 25 30 24 31 C22.21928754 31.08726223 20.4351686 31.10699041 18.65234375 31.09765625 C17.68031006 31.09515869 16.70827637 31.09266113 15.70678711 31.09008789 C14.46292236 31.08098389 13.21905762 31.07187988 11.9375 31.0625 C7.998125 31.041875 4.05875 31.02125 0 31 C0 20.77 0 10.54 0 0 Z " fill="#DA262D" transform="translate(229,73)"/>
<path d="M0 0 C1.65 0 3.3 0 5 0 C5 8.58 5 17.16 5 26 C11.93 26 18.86 26 26 26 C25 30 25 30 24 31 C22.21928754 31.08726223 20.4351686 31.10699041 18.65234375 31.09765625 C17.68031006 31.09515869 16.70827637 31.09266113 15.70678711 31.09008789 C14.46292236 31.08098389 13.21905762 31.07187988 11.9375 31.0625 C7.998125 31.041875 4.05875 31.02125 0 31 C0 20.77 0 10.54 0 0 Z " fill="#E91F26" transform="translate(68,73)"/>
<path d="M0 0 C4.56205671 4.4450809 6.15959286 6.26728218 6.3125 12.625 C6.26731775 17.98877845 5.67913382 22.85529678 2 27 C-0.140625 27.70703125 -0.140625 27.70703125 -2 28 C-1.01 29.65 -0.02 31.3 1 33 C-6.55428713 33.37771436 -6.55428713 33.37771436 -8.75390625 31.51367188 C-11.6540345 29.55923762 -13.60004574 29.57352829 -17.078125 29.48828125 C-18.81835938 29.43510742 -18.81835938 29.43510742 -20.59375 29.38085938 C-21.8003125 29.35830078 -23.006875 29.33574219 -24.25 29.3125 C-25.47203125 29.27833984 -26.6940625 29.24417969 -27.953125 29.20898438 C-30.96865846 29.12652838 -33.98390194 29.05736799 -37 29 C-37 28.67 -37 28.34 -37 28 C-32.41670862 27.83216619 -27.83336053 27.6659338 -23.25 27.5 C-21.94804687 27.45230469 -20.64609375 27.40460938 -19.3046875 27.35546875 C-17.42910156 27.28779297 -17.42910156 27.28779297 -15.515625 27.21875 C-14.36352539 27.17685547 -13.21142578 27.13496094 -12.02441406 27.09179688 C-9.68382066 27.02075529 -7.34167128 27 -5 27 C-5.95865509 24.66924071 -5.95865509 24.66924071 -9 23 C-5.535 22.505 -5.535 22.505 -2 22 C-0.98297883 18.9489365 -0.83417917 16.75800939 -0.8125 13.5625 C-0.79832031 12.61503906 -0.78414062 11.66757813 -0.76953125 10.69140625 C-1.00385482 7.95498356 -1.60298617 6.33571877 -3 4 C-2.01 3.34 -1.02 2.68 0 2 C0 1.34 0 0.68 0 0 Z " fill="#ED202A" transform="translate(219,75)"/>
<path d="M0 0 C15.84 0 31.68 0 48 0 C48 56.76 48 113.52 48 172 C47.34 172 46.68 172 46 172 C46.00414807 170.72225142 46.00414807 170.72225142 46.00837994 169.41868973 C46.07459441 148.70451879 46.12425847 127.99036605 46.15543652 107.2761116 C46.17091422 97.25890557 46.19202098 87.24177011 46.22631836 77.22460938 C46.25619308 68.49501396 46.27556843 59.76546965 46.28226548 51.03582454 C46.28618101 46.41229982 46.29540178 41.78892133 46.31719017 37.16544342 C46.33752489 32.81526449 46.34383993 28.46529229 46.33932304 24.11507034 C46.3401496 22.51708224 46.34613324 20.91908735 46.35761642 19.32114029 C46.37251376 17.14151159 46.36896425 14.96266635 46.36076355 12.78302002 C46.36352893 11.56256611 46.36629431 10.3421122 46.36914349 9.08467484 C45.96975793 5.74728806 45.35016862 4.35965969 43 2 C40.97991998 1.38867339 40.97991998 1.38867339 38.7121582 1.45410156 C37.85149246 1.43438293 36.99082672 1.41466431 36.1040802 1.39434814 C35.17899155 1.39311951 34.25390289 1.39189087 33.30078125 1.390625 C31.87550362 1.36582062 31.87550362 1.36582062 30.4214325 1.34051514 C27.38505674 1.29191041 24.34918223 1.27063648 21.3125 1.25 C19.2545319 1.22185076 17.19658728 1.19192482 15.13867188 1.16015625 C10.09248916 1.08614803 5.04658676 1.0366496 0 1 C0 0.67 0 0.34 0 0 Z " fill="#281919" transform="translate(235,0)"/>
<path d="M0 0 C0.33 0 0.66 0 1 0 C1.02505615 1.26706787 1.0501123 2.53413574 1.07592773 3.83959961 C1.16981996 8.52297779 1.27008435 13.2062013 1.37231445 17.8894043 C1.41573241 19.91964104 1.45740226 21.94991592 1.49731445 23.98022461 C1.55485146 26.89188151 1.61859278 29.80334514 1.68359375 32.71484375 C1.70030624 33.6283812 1.71701874 34.54191864 1.73423767 35.48313904 C1.4230685 39.56789316 1.4230685 39.56789316 3 43 C3.12344027 44.87096111 3.17792394 46.74650928 3.20532227 48.62133789 C3.22526749 49.82250748 3.24521271 51.02367706 3.26576233 52.26124573 C3.28247482 53.5685112 3.29918732 54.87577667 3.31640625 56.22265625 C3.33696958 57.56644847 3.35796588 58.91023412 3.37937927 60.25401306 C3.43466419 63.79674987 3.48404498 67.33954567 3.53222656 70.88238525 C3.58239487 74.4952115 3.63810525 78.10795172 3.69335938 81.72070312 C3.80101937 88.81372747 3.9024468 95.90682888 4 103 C2.68 103 1.36 103 0 103 C0 69.01 0 35.02 0 0 Z " fill="#1C1C1C" transform="translate(0,69)"/>
<path d="M0 0 C0.75690705 -0.00226556 1.5138141 -0.00453111 2.29365772 -0.00686532 C4.82542099 -0.01318657 7.35713048 -0.01237718 9.88890076 -0.0115509 C11.70578582 -0.01454348 13.52267024 -0.01794623 15.33955383 -0.02172852 C20.27119063 -0.03056056 25.20281007 -0.03290624 30.13445401 -0.0335443 C34.25003332 -0.03449395 38.36560858 -0.03817271 42.48118633 -0.0417164 C52.18756848 -0.04985717 61.89394136 -0.05230089 71.60032654 -0.05158997 C81.61998246 -0.05098857 91.63958464 -0.06155353 101.65922695 -0.07733363 C110.25889705 -0.09039577 118.85854954 -0.09577445 127.45822948 -0.09513456 C132.59583516 -0.09487927 137.73339304 -0.09774755 142.87098885 -0.10831261 C147.69972194 -0.11797182 152.52836129 -0.11808778 157.35709763 -0.11079597 C159.13084868 -0.10974757 160.90460551 -0.11212813 162.67834663 -0.11815643 C165.09622256 -0.12584295 167.51377203 -0.12125394 169.93164062 -0.11352539 C170.98878583 -0.12124074 170.98878583 -0.12124074 172.0672875 -0.12911195 C175.68206426 -0.10350992 178.32609236 0.15814921 181.40232849 2.13371277 C181.40232849 2.79371277 181.40232849 3.45371277 181.40232849 4.13371277 C179.70518456 3.6462281 179.70518456 3.6462281 177.97375488 3.14889526 C170.50748093 1.5056442 162.86250312 1.86338104 155.25950623 1.89079285 C153.52733794 1.88971858 151.79517 1.88777776 150.06300354 1.88504028 C145.37922858 1.88021219 140.69554958 1.88782205 136.01178622 1.89799333 C131.10014383 1.90680765 126.18850415 1.90501573 121.27685547 1.90463257 C113.03131006 1.90556771 104.78580156 1.91423157 96.54026794 1.92790222 C87.01822177 1.94363131 77.49621598 1.94890004 67.97415775 1.94816667 C57.81927521 1.94749029 47.66440816 1.95443598 37.50953031 1.96361327 C34.59060625 1.9657406 31.6716847 1.96645391 28.75275993 1.96685219 C24.16036003 1.96785958 19.56799379 1.97398857 14.97560501 1.98401833 C13.29383742 1.98692925 11.61206595 1.98817156 9.93029594 1.98759079 C7.62796431 1.98709675 5.32572561 1.9927883 3.02340698 2 C1.73721183 2.00167584 0.45101667 2.00335169 -0.87415409 2.00507832 C-4.85055655 2.14244906 -8.65939459 2.58422341 -12.59767151 3.13371277 C-12.59767151 2.47371277 -12.59767151 1.81371277 -12.59767151 1.13371277 C-8.38477172 0.11095047 -4.30995095 -0.00950048 0 0 Z " fill="#FFEBEE" transform="translate(55.59767150878906,0.8662872314453125)"/>
<path d="M0 0 C1.025776 -0.00384491 1.025776 -0.00384491 2.07227474 -0.0077675 C4.34482122 -0.01267642 6.61669101 0.00373862 8.88917542 0.02018738 C10.52565495 0.02103428 12.16213563 0.02055727 13.7986145 0.01885986 C18.22791135 0.01800095 22.65696328 0.03560987 27.08620334 0.05658174 C31.71998263 0.07536585 36.35376785 0.07710034 40.98757935 0.08065796 C49.75639374 0.08997333 58.5250956 0.11458024 67.2938605 0.14470643 C77.27930668 0.17826625 87.26475831 0.19474043 97.25024688 0.20979273 C117.78563281 0.24113023 138.32091752 0.29388086 158.85621643 0.36076355 C158.85621643 0.69076355 158.85621643 1.02076355 158.85621643 1.36076355 C158.01138136 1.3631519 157.16654629 1.36554026 156.29611015 1.36800098 C135.73969296 1.42713619 115.18339316 1.50267683 94.62710381 1.59647846 C84.68623286 1.6414446 74.7453978 1.6808574 64.80445862 1.7071991 C56.13996624 1.73017252 47.47558737 1.76356325 38.811185 1.80946511 C34.22341421 1.83340614 29.63575589 1.85212916 25.04792404 1.85837746 C20.72885148 1.86442432 16.41006673 1.88440973 12.09110069 1.91503906 C10.50688487 1.92382568 8.92263145 1.92754057 7.33839226 1.92577171 C5.17252347 1.92411713 3.00753016 1.94083259 0.84178162 1.96203613 C-0.97507236 1.96894958 -0.97507236 1.96894958 -2.82863045 1.97600269 C-6.49974046 2.40207636 -8.95969049 3.52851476 -12.14378357 5.36076355 C-12.80378357 4.70076355 -13.46378357 4.04076355 -14.14378357 3.36076355 C-9.18146307 0.95972892 -5.60437783 -0.01272758 0 0 Z " fill="#FFE6E6" transform="translate(63.14378356933594,16.639236450195313)"/>
<path d="M0 0 C0.70125 0.144375 1.4025 0.28875 2.125 0.4375 C-1.07849962 5.65231077 -4.94360892 9.85922711 -9.1875 14.25 C-13.403606 18.64432243 -17.41713981 22.95032306 -20.9375 27.9375 C-23.45014651 31.36797852 -23.45014651 31.36797852 -27.3125 32 C-28.158125 31.814375 -29.00375 31.62875 -29.875 31.4375 C-25.75528718 25.67699839 -21.27677089 20.47977353 -16.375 15.375 C-15.09226328 14.03136568 -13.81099696 12.68632598 -12.53125 11.33984375 C-11.91652832 10.6945874 -11.30180664 10.04933105 -10.66845703 9.38452148 C-8.40104765 6.92296556 -6.28775988 4.35092758 -4.20458984 1.73242188 C-2.875 0.4375 -2.875 0.4375 0 0 Z " fill="#E5272D" transform="translate(127.875,72.5625)"/>
<path d="M0 0 C7.26 0 14.52 0 22 0 C22.33 1.65 22.66 3.3 23 5 C20.6602429 7.3397571 20.14638994 7.26915075 16.97265625 7.37890625 C16.18052734 7.41306641 15.38839844 7.44722656 14.57226562 7.48242188 C13.74404297 7.50884766 12.91582031 7.53527344 12.0625 7.5625 C10.42824341 7.62255478 8.79411422 7.68621181 7.16015625 7.75390625 C6.07166382 7.78979858 6.07166382 7.78979858 4.96118164 7.82641602 C2.78630841 7.94269972 2.78630841 7.94269972 0 9 C0 6.03 0 3.06 0 0 Z " fill="#FEEAE9" transform="translate(36,79)"/>
<path d="M0 0 C6.89155097 -0.84633082 6.89155097 -0.84633082 9.94921875 1.48828125 C11.12176086 2.71677982 12.26120717 3.97802593 13.359375 5.2734375 C15.10964479 7.11538809 16.68184102 8.00218374 19 9 C19 9.66 19 10.32 19 11 C17.02 11.99 17.02 11.99 15 13 C15 12.34 15 11.68 15 11 C14.01 11.495 14.01 11.495 13 12 C10.96767366 12.08527628 8.93252994 12.10716135 6.8984375 12.09765625 C5.68671875 12.09443359 4.475 12.09121094 3.2265625 12.08789062 C1.95554688 12.07951172 0.68453125 12.07113281 -0.625 12.0625 C-1.90375 12.05798828 -3.1825 12.05347656 -4.5 12.04882812 C-7.66671292 12.03701203 -10.83333356 12.02053815 -14 12 C-14.33 11.34 -14.66 10.68 -15 10 C-8.4 10 -1.8 10 5 10 C0.71 9.67 -3.58 9.34 -8 9 C-8 8.67 -8 8.34 -8 8 C-3.05 8 1.9 8 7 8 C7 7.34 7 6.68 7 6 C6.401875 5.7525 5.80375 5.505 5.1875 5.25 C2.71352479 3.83629988 1.56629745 2.34944617 0 0 Z " fill="#F0161F" transform="translate(195,91)"/>
<path d="M0 0 C0.33 0 0.66 0 1 0 C1.33 4.29 1.66 8.58 2 13 C4.475 13.99 4.475 13.99 7 15 C7 15.99 7 16.98 7 18 C13.93 18 20.86 18 28 18 C28 18.33 28 18.66 28 19 C21.07 19 14.14 19 7 19 C7 22.96 7 26.92 7 31 C4.69 31 2.38 31 0 31 C0 20.77 0 10.54 0 0 Z " fill="#F1373F" transform="translate(29,73)"/>
<path d="M0 0 C8.25 0.33 16.5 0.66 25 1 C25 1.66 25 2.32 25 3 C14.605 3.495 14.605 3.495 4 4 C4 7.3 4 10.6 4 14 C2.68 13.34 1.36 12.68 0 12 C0 17.61 0 23.22 0 29 C-0.33 29 -0.66 29 -1 29 C-1.02891546 24.54168018 -1.04676981 20.08338431 -1.0625 15.625 C-1.07087891 14.35398437 -1.07925781 13.08296875 -1.08789062 11.7734375 C-1.09111328 10.56171875 -1.09433594 9.35 -1.09765625 8.1015625 C-1.10289307 6.98088379 -1.10812988 5.86020508 -1.11352539 4.70556641 C-1 2 -1 2 0 0 Z " fill="#F51520" transform="translate(31,74)"/>
<path d="M0 0 C3.27081471 -0.02902429 6.5415963 -0.04680684 9.8125 -0.0625 C11.2056543 -0.07506836 11.2056543 -0.07506836 12.62695312 -0.08789062 C13.51962891 -0.09111328 14.41230469 -0.09433594 15.33203125 -0.09765625 C16.56530151 -0.10551147 16.56530151 -0.10551147 17.82348633 -0.11352539 C20 0 20 0 23 1 C24.66362417 1.34820041 26.32995171 1.68404492 28 2 C26.95581055 3.48168945 26.95581055 3.48168945 25 5 C22.48272281 5.26153286 20.21896034 5.3497922 17.70703125 5.29296875 C16.64798836 5.28660149 16.64798836 5.28660149 15.56755066 5.28010559 C13.31547697 5.26333034 11.06430258 5.22568243 8.8125 5.1875 C7.28451815 5.17245157 5.75652224 5.15876344 4.22851562 5.14648438 C0.48533128 5.11343089 -3.25718196 5.06165832 -7 5 C-5 3 -5 3 -2.375 2.875 C-1.59125 2.91625 -0.8075 2.9575 0 3 C0 2.01 0 1.02 0 0 Z " fill="#F72D36" transform="translate(141,99)"/>
<path d="M0 0 C1.32 0.66 2.64 1.32 4 2 C4 2.66 4 3.32 4 4 C4.66 4 5.32 4 6 4 C6.33 2.68 6.66 1.36 7 0 C7 10.23 7 20.46 7 31 C6.67 31 6.34 31 6 31 C5.505 21.1 5.505 21.1 5 11 C4.34 12.65 3.68 14.3 3 16 C0.26728502 19.15615484 -1.27761039 20.79009447 -5.45605469 21.29931641 C-8.28711333 21.26835646 -11.05644183 21.07793332 -13.875 20.8125 C-14.84953125 20.74224609 -15.8240625 20.67199219 -16.828125 20.59960938 C-19.22063166 20.42368977 -21.61069541 20.21508 -24 20 C-24 23.3 -24 26.6 -24 30 C-24.33 30 -24.66 30 -25 30 C-25 26.37 -25 22.74 -25 19 C-23.55367187 18.97421875 -22.10734375 18.9484375 -20.6171875 18.921875 C-18.70309548 18.86557818 -16.78903415 18.8082312 -14.875 18.75 C-13.92367187 18.73582031 -12.97234375 18.72164062 -11.9921875 18.70703125 C-6.1570506 18.50442233 -2.29654289 18.13952637 2 14 C2.79309241 11.56927172 2.79309241 11.56927172 2.5 9 C2.4690625 8.154375 2.438125 7.30875 2.40625 6.4375 C1.99051839 3.94311032 1.25264142 2.18202054 0 0 Z " fill="#FDDDDC" transform="translate(61,73)"/>
<path d="M0 0 C0.33 0 0.66 0 1 0 C1 9.9 1 19.8 1 30 C0.67 30 0.34 30 0 30 C0 27.69 0 25.38 0 23 C-2.61878091 25.48784187 -4.99264944 27.98897417 -7 31 C-6.86850174 33.75124253 -6.86850174 33.75124253 -6 36 C-8.64 36 -11.28 36 -14 36 C-14 35.67 -14 35.34 -14 35 C-11.525 34.505 -11.525 34.505 -9 34 C-9.66 32.68 -10.32 31.36 -11 30 C-10.401875 29.814375 -9.80375 29.62875 -9.1875 29.4375 C-5.92576948 27.29407708 -4.87480488 24.67037699 -4 21 C-3.34095877 14.34724595 -3.22185892 8.66721161 -7 3 C-5.68 3.33 -4.36 3.66 -3 4 C-2.34 8.29 -1.68 12.58 -1 17 C-0.67 11.39 -0.34 5.78 0 0 Z " fill="#FED6D7" transform="translate(228,73)"/>
<path d="M0 0 C0.66 0 1.32 0 2 0 C3.01044795 3.03134384 3.05032949 4.74395943 2.87890625 7.88671875 C2.83056641 8.82451172 2.78222656 9.76230469 2.73242188 10.72851562 C2.67634766 11.70498047 2.62027344 12.68144531 2.5625 13.6875 C2.51029297 14.67556641 2.45808594 15.66363281 2.40429688 16.68164062 C2.27464694 19.12141676 2.13968258 21.56078105 2 24 C2.99 23.67 3.98 23.34 5 23 C10.72662827 22.69434009 16.37844743 22.78452917 22 24 C22 25.98 22 27.96 22 30 C21.01 30 20.02 30 19 30 C19.66 28.68 20.32 27.36 21 26 C14.07 26 7.14 26 0 26 C0 17.42 0 8.84 0 0 Z " fill="#FDCECE" transform="translate(234,73)"/>
<path d="M0 0 C1.99954746 -0.04254356 4.00041636 -0.04080783 6 0 C7 1 7 1 7.11352539 3.31665039 C7.10828857 4.31688232 7.10305176 5.31711426 7.09765625 6.34765625 C7.09282227 7.96704102 7.09282227 7.96704102 7.08789062 9.61914062 C7.07951172 10.75544922 7.07113281 11.89175781 7.0625 13.0625 C7.05798828 14.20267578 7.05347656 15.34285156 7.04882812 16.51757812 C7.0369976 19.34507418 7.0190615 22.17254345 7 25 C13.6 25 20.2 25 27 25 C27.33 25.66 27.66 26.32 28 27 C27.34 27.66 26.68 28.32 26 29 C26 28.34 26 27.68 26 27 C19.07 27 12.14 27 5 27 C5 18.42 5 9.84 5 1 C3.35 1 1.7 1 0 1 C0 0.67 0 0.34 0 0 Z " fill="#FECBCB" transform="translate(68,72)"/>
<path d="M0 0 C0.99 0 1.98 0 3 0 C3.33 8.58 3.66 17.16 4 26 C10.93 26.495 10.93 26.495 18 27 C18 27.33 18 27.66 18 28 C15.18743719 28.02684312 12.37512759 28.04676188 9.5625 28.0625 C8.76005859 28.07087891 7.95761719 28.07925781 7.13085938 28.08789062 C5.08704779 28.0965143 3.04316098 28.0522815 1 28 C0 27 0 27 -0.11352539 24.40795898 C-0.10828857 23.28204346 -0.10305176 22.15612793 -0.09765625 20.99609375 C-0.09443359 19.78115234 -0.09121094 18.56621094 -0.08789062 17.31445312 C-0.07951172 16.03505859 -0.07113281 14.75566406 -0.0625 13.4375 C-0.05798828 12.15423828 -0.05347656 10.87097656 -0.04882812 9.54882812 C-0.03699545 6.36583978 -0.02051068 3.18294238 0 0 Z " fill="#FA1820" transform="translate(230,74)"/>
<path d="M0 0 C0.82226074 0.48218994 0.82226074 0.48218994 1.66113281 0.97412109 C4.38531533 2.16900783 6.4542022 2.31514007 9.421875 2.4140625 C10.44667969 2.45273438 11.47148437 2.49140625 12.52734375 2.53125 C13.59082031 2.5621875 14.65429688 2.593125 15.75 2.625 C17.36841797 2.68300781 17.36841797 2.68300781 19.01953125 2.7421875 C21.67951775 2.83634631 24.3394994 2.92197387 27 3 C27.625 4.8125 27.625 4.8125 28 7 C27.01 8.485 27.01 8.485 26 10 C23.6015625 10.41650391 23.6015625 10.41650391 20.625 10.4765625 C19.55765625 10.5075 18.4903125 10.5384375 17.390625 10.5703125 C16.27171875 10.58835937 15.1528125 10.60640625 14 10.625 C11.79157578 10.67588535 9.58323104 10.73038969 7.375 10.7890625 C6.39273438 10.80662598 5.41046875 10.82418945 4.3984375 10.84228516 C1.98643526 10.84529844 1.98643526 10.84529844 0 12 C0 11.01 0 10.02 0 9 C12.375 8.505 12.375 8.505 25 8 C25 7.01 25 6.02 25 5 C24.34926514 5.01571045 23.69853027 5.0314209 23.02807617 5.04760742 C20.08130576 5.10994649 17.13467402 5.14898684 14.1875 5.1875 C12.65125977 5.22520508 12.65125977 5.22520508 11.08398438 5.26367188 C9.60961914 5.27817383 9.60961914 5.27817383 8.10546875 5.29296875 C7.19949951 5.3086792 6.29353027 5.32438965 5.36010742 5.34057617 C3 5 3 5 1.1809082 3.60668945 C0 2 0 2 0 0 Z " fill="#FEC3C4" transform="translate(138,88)"/>
<path d="M0 0 C1.65 0 3.3 0 5 0 C2.20687778 6.15584921 -1.08016318 10.90054332 -5.5625 15.9375 C-6.13935547 16.60845703 -6.71621094 17.27941406 -7.31054688 17.97070312 C-11.60361607 22.86787202 -11.60361607 22.86787202 -15 24 C-14.67 22.35 -14.34 20.7 -14 19 C-12.35 18.67 -10.7 18.34 -9 18 C-8.67 16.35 -8.34 14.7 -8 13 C-7.01 13 -6.02 13 -5 13 C-5.33 12.01 -5.66 11.02 -6 10 C-5.2884375 9.38125 -5.2884375 9.38125 -4.5625 8.75 C-2.83733482 6.817815 -2.43415125 5.51807725 -2 3 C-1.34 3 -0.68 3 0 3 C0 2.01 0 1.02 0 0 Z " fill="#EC1F26" transform="translate(266,144)"/>
<path d="M0 0 C0.33 0 0.66 0 1 0 C1.1953125 1.953125 1.390625 3.90625 1.5859375 5.859375 C1.9790407 8.40677111 1.9790407 8.40677111 4 12 C9.94 11.67 15.88 11.34 22 11 C21.34 12.65 20.68 14.3 20 16 C17.60408962 16.02712351 15.20849043 16.0468982 12.8125 16.0625 C12.13896484 16.07087891 11.46542969 16.07925781 10.77148438 16.08789062 C6.94676622 16.10654779 3.79711284 15.75942257 0 15 C0 10.05 0 5.1 0 0 Z " fill="#F82830" transform="translate(180,86)"/>
<path d="M0 0 C1.02574883 0.00424484 1.02574883 0.00424484 2.07221985 0.00857544 C4.2527529 0.01975566 6.4328727 0.04485559 8.61328125 0.0703125 C10.09309302 0.08034512 11.57291124 0.08947048 13.05273438 0.09765625 C16.67721725 0.11968769 20.30145891 0.15420248 23.92578125 0.1953125 C23.92578125 1.1853125 23.92578125 2.1753125 23.92578125 3.1953125 C23.03793945 3.17960205 22.15009766 3.1638916 21.23535156 3.14770508 C17.93288304 3.09649564 14.63083805 3.05892394 11.328125 3.03051758 C9.90032279 3.01545569 8.47256665 2.99500188 7.04492188 2.96899414 C4.98946752 2.93249408 2.9346262 2.91556084 0.87890625 2.90234375 C-0.35698242 2.8866333 -1.59287109 2.87092285 -2.86621094 2.85473633 C-6.27583286 3.21671674 -7.6200337 3.87241028 -10.07421875 6.1953125 C-10.07421875 4.8753125 -10.07421875 3.5553125 -10.07421875 2.1953125 C-6.34881213 -0.28829191 -4.44358902 -0.0362742 0 0 Z " fill="#FEDADC" transform="translate(147.07421875,70.8046875)"/>
<path d="M0 0 C1.084021 0.00523682 2.16804199 0.01047363 3.28491211 0.01586914 C5.03964844 0.02070312 5.03964844 0.02070312 6.82983398 0.02563477 C8.67738281 0.03820312 8.67738281 0.03820312 10.56225586 0.05102539 C12.41560547 0.05779297 12.41560547 0.05779297 14.30639648 0.06469727 C17.37089703 0.07652931 20.43530307 0.09301366 23.49975586 0.11352539 C23.49975586 0.77352539 23.49975586 1.43352539 23.49975586 2.11352539 C15.90975586 2.11352539 8.31975586 2.11352539 0.49975586 2.11352539 C0.49975586 2.77352539 0.49975586 3.43352539 0.49975586 4.11352539 C-0.16024414 4.11352539 -0.82024414 4.11352539 -1.50024414 4.11352539 C-1.50024414 5.43352539 -1.50024414 6.75352539 -1.50024414 8.11352539 C-2.16024414 8.11352539 -2.82024414 8.11352539 -3.50024414 8.11352539 C-3.54266137 5.78057764 -3.54117351 3.44649972 -3.50024414 1.11352539 C-2.50024414 0.11352539 -2.50024414 0.11352539 0 0 Z " fill="#FD151F" transform="translate(142.500244140625,74.886474609375)"/>
<path d="M0 0 C0 0.66 0 1.32 0 2 C1.32 2.66 2.64 3.32 4 4 C4 4.33 4 4.66 4 5 C-3.55428713 5.37771436 -3.55428713 5.37771436 -5.75390625 3.51367188 C-8.6540345 1.55923762 -10.60004574 1.57352829 -14.078125 1.48828125 C-15.81835938 1.43510742 -15.81835938 1.43510742 -17.59375 1.38085938 C-19.40359375 1.34702148 -19.40359375 1.34702148 -21.25 1.3125 C-23.08304688 1.26125977 -23.08304688 1.26125977 -24.953125 1.20898438 C-27.96865846 1.12652838 -30.98390194 1.05736799 -34 1 C-34 0.67 -34 0.34 -34 0 C-29.83378191 -0.19849851 -25.66702543 -0.38180993 -21.5 -0.5625 C-20.32695312 -0.61857422 -19.15390625 -0.67464844 -17.9453125 -0.73242188 C-11.81240536 -0.99083088 -6.0597272 -1.01245442 0 0 Z " fill="#F0373E" transform="translate(216,103)"/>
<path d="M0 0 C1.98 0 3.96 0 6 0 C5.525625 0.845625 5.05125 1.69125 4.5625 2.5625 C1.92396466 8.56143413 2.24111989 15.5396499 2 22 C-0.28156312 17.43687377 -1.13661294 14.77090219 -1.125 9.5625 C-1.12757813 8.40878906 -1.13015625 7.25507812 -1.1328125 6.06640625 C-1 3 -1 3 0 0 Z " fill="#F11924" transform="translate(178,79)"/>
<path d="M0 0 C0.74958984 0.00451172 1.49917969 0.00902344 2.27148438 0.01367188 C4.11852383 0.02543646 5.96552213 0.04337135 7.8125 0.0625 C6.4925 0.3925 5.1725 0.7225 3.8125 1.0625 C3.8125 1.7225 3.8125 2.3825 3.8125 3.0625 C4.4725 3.3925 5.1325 3.7225 5.8125 4.0625 C-0.1275 4.0625 -6.0675 4.0625 -12.1875 4.0625 C-11.8575 3.0725 -11.5275 2.0825 -11.1875 1.0625 C-7.42449626 -0.19183458 -3.91539091 -0.04445422 0 0 Z " fill="#EF141F" transform="translate(48.1875,86.9375)"/>
<path d="M0 0 C0.82226074 0.48218994 0.82226074 0.48218994 1.66113281 0.97412109 C4.38531533 2.16900783 6.4542022 2.31514007 9.421875 2.4140625 C10.44667969 2.45273438 11.47148437 2.49140625 12.52734375 2.53125 C13.59082031 2.5621875 14.65429688 2.593125 15.75 2.625 C17.36841797 2.68300781 17.36841797 2.68300781 19.01953125 2.7421875 C21.67951775 2.83634631 24.3394994 2.92197387 27 3 C25 5 25 5 22.47802734 5.22705078 C21.4411377 5.21657715 20.40424805 5.20610352 19.3359375 5.1953125 C18.21445313 5.18886719 17.09296875 5.18242188 15.9375 5.17578125 C14.761875 5.15902344 13.58625 5.14226562 12.375 5.125 C10.59996094 5.11146484 10.59996094 5.11146484 8.7890625 5.09765625 C5.85917477 5.07402812 2.9296866 5.04108514 0 5 C0 3.35 0 1.7 0 0 Z " fill="#FC151E" transform="translate(139,84)"/>
<path d="M0 0 C1.32 0 2.64 0 4 0 C2.63387799 3.09744495 1.0959759 5.07666871 -1.375 7.375 C-4.47543608 10.36562897 -6.70090513 13.37450424 -9 17 C-9.33 17 -9.66 17 -10 17 C-10 15.02 -10 13.04 -10 11 C-9.34 10.67 -8.68 10.34 -8 10 C-8 9.01 -8 8.02 -8 7 C-2.85714286 3 -2.85714286 3 1 3 C0.67 2.01 0.34 1.02 0 0 Z " fill="#EE1D27" transform="translate(43,20)"/>
<path d="M0 0 C1.98 0 3.96 0 6 0 C6.3125 2.75 6.3125 2.75 6 6 C3.5625 8.25 3.5625 8.25 1 10 C0.67 10.66 0.34 11.32 0 12 C-0.66 12 -1.32 12 -2 12 C-2.33 12.66 -2.66 13.32 -3 14 C-3.99 14 -4.98 14 -6 14 C-5.52949219 13.46890625 -5.05898437 12.9378125 -4.57421875 12.390625 C-3.95160156 11.68421875 -3.32898438 10.9778125 -2.6875 10.25 C-1.76517578 9.20585938 -1.76517578 9.20585938 -0.82421875 8.140625 C0.87314734 6.14885494 2.45477809 4.11101085 4 2 C2.68 1.34 1.36 0.68 0 0 Z " fill="#FDE1E1" transform="translate(125,72)"/>
<path d="M0 0 C1.283626 3.850878 0.31110333 6.48455692 -0.75 10.25 C-0.92015625 10.89324219 -1.0903125 11.53648438 -1.265625 12.19921875 C-2.48601024 16.65900892 -4.10010464 20.78528961 -6 25 C-8.6068279 18.26569459 -3.94357535 8.93159227 -1.25 2.625 C-0.8375 1.75875 -0.425 0.8925 0 0 Z " fill="#FFD4D5" transform="translate(266,102)"/>
<path d="M0 0 C3.3 0 6.6 0 10 0 C10 1.32 10 2.64 10 4 C6.37 4 2.74 4 -1 4 C-0.67 2.68 -0.34 1.36 0 0 Z " fill="#FBFDFC" transform="translate(47,81)"/>
<path d="M0 0 C0.33 0.99 0.66 1.98 1 3 C-0.328125 5.05078125 -0.328125 5.05078125 -2.25 7.3125 C-5.08012786 10.76966218 -7.2195487 13.91543526 -9 18 C-9.66 18 -10.32 18 -11 18 C-9.68493198 13.35250831 -7.83857485 10.0362944 -4.9375 6.1875 C-4.22464844 5.23230469 -3.51179688 4.27710938 -2.77734375 3.29296875 C-1 1 -1 1 0 0 Z " fill="#FEDBD9" transform="translate(40,28)"/>
<path d="M0 0 C0.99 0.33 1.98 0.66 3 1 C3 4.63 3 8.26 3 12 C0.69 12 -1.62 12 -4 12 C-4.33 11.34 -4.66 10.68 -5 10 C-3.68 9.67 -2.36 9.34 -1 9 C-0.27743171 4.51866426 -0.27743171 4.51866426 0 0 Z " fill="#FB161C" transform="translate(166,89)"/>
<path d="M0 0 C0.33 0 0.66 0 1 0 C1.02696365 1.79158489 1.04637917 3.58328473 1.0625 5.375 C1.07410156 6.37273437 1.08570313 7.37046875 1.09765625 8.3984375 C1 11 1 11 0 13 C-0.23172827 15.54615009 -0.41894529 18.07396225 -0.5625 20.625 C-0.60568359 21.33140625 -0.64886719 22.0378125 -0.69335938 22.765625 C-0.79944751 24.51018537 -0.90022889 26.25506697 -1 28 C-1.33 28 -1.66 28 -2 28 C-2.38297872 8.46808511 -2.38297872 8.46808511 0 0 Z " fill="#FAB9BC" transform="translate(20,68)"/>
<path d="M0 0 C3.875 0.875 3.875 0.875 5 2 C5.14115161 4.67058851 5.04247107 7.32432238 5 10 C4.34 10 3.68 10 3 10 C2.67 10.66 2.34 11.32 2 12 C2 9.36 2 6.72 2 4 C1.34 3.67 0.68 3.34 0 3 C0 2.01 0 1.02 0 0 Z " fill="#FC1320" transform="translate(58,75)"/>
<path d="M0 0 C8.91 0 17.82 0 27 0 C26.34 1.32 25.68 2.64 25 4 C24.67 3.01 24.34 2.02 24 1 C16.08 1 8.16 1 0 1 C0 0.67 0 0.34 0 0 Z " fill="#ED2127" transform="translate(142,74)"/>
<path d="M0 0 C4.29 0 8.58 0 13 0 C11.68 0.33 10.36 0.66 9 1 C9 1.66 9 2.32 9 3 C6.03 3 3.06 3 0 3 C0 2.01 0 1.02 0 0 Z " fill="#FE151E" transform="translate(43,87)"/>
<path d="M0 0 C0.66 0.33 1.32 0.66 2 1 C1.43410156 1.31453125 0.86820313 1.6290625 0.28515625 1.953125 C-0.44832031 2.38109375 -1.18179688 2.8090625 -1.9375 3.25 C-3.03384766 3.87648438 -3.03384766 3.87648438 -4.15234375 4.515625 C-6.31857318 6.25593617 -6.63594751 7.29561004 -7 10 C-8.98 10.33 -10.96 10.66 -13 11 C-9.18420436 6.02409067 -5.73375212 2.64634713 0 0 Z " fill="#E5323C" transform="translate(40,5)"/>
<path d="M0 0 C0.99 0.33 1.98 0.66 3 1 C3 4.96 3 8.92 3 13 C1.68 13.33 0.36 13.66 -1 14 C-0.67 13.34 -0.34 12.68 0 12 C0.07065617 9.95944995 0.08421976 7.91665743 0.0625 5.875 C0.05347656 4.77929688 0.04445312 3.68359375 0.03515625 2.5546875 C0.02355469 1.71164063 0.01195312 0.86859375 0 0 Z " fill="#E12B33" transform="translate(218,82)"/>
<path d="M0 0 C2.28928166 1.792665 2.94918203 2.66918495 3.3984375 5.59375 C3.39070312 6.5528125 3.38296875 7.511875 3.375 8.5 C3.38273438 9.4590625 3.39046875 10.418125 3.3984375 11.40625 C2.94918203 14.33081505 2.28928166 15.207335 0 17 C-0.06859047 14.05060973 -0.08702347 11.38677097 0.5625 8.5 C1.09589541 5.45202624 0.62975044 3.00880767 0 0 Z " fill="#FEDADA" transform="translate(216,80)"/>
<path d="M0 0 C7.26 0 14.52 0 22 0 C21.67 1.65 21.34 3.3 21 5 C20.34 4.01 19.68 3.02 19 2 C16.97723319 1.49378487 16.97723319 1.49378487 14.6484375 1.48828125 C13.79765625 1.45283203 12.946875 1.41738281 12.0703125 1.38085938 C11.18085937 1.35830078 10.29140625 1.33574219 9.375 1.3125 C8.02921875 1.26125977 8.02921875 1.26125977 6.65625 1.20898438 C4.43762462 1.12637598 2.2194006 1.05727281 0 1 C0 0.67 0 0.34 0 0 Z " fill="#FEECEA" transform="translate(37,80)"/>
<path d="M0 0 C0.7425 0.0825 1.485 0.165 2.25 0.25 C-1.5 6.125 -1.5 6.125 -3.75 7.25 C-4.08 6.59 -4.41 5.93 -4.75 5.25 C-5.41 4.92 -6.07 4.59 -6.75 4.25 C-3.42692308 0.31153846 -3.42692308 0.31153846 0 0 Z " fill="#D92D34" transform="translate(127.75,72.75)"/>
<path d="M0 0 C1.27875 -0.061875 2.5575 -0.12375 3.875 -0.1875 C4.95394531 -0.23970703 4.95394531 -0.23970703 6.0546875 -0.29296875 C6.69664062 -0.19628906 7.33859375 -0.09960938 8 0 C8.66 0.99 9.32 1.98 10 3 C8.35 3 6.7 3 5 3 C5.99 4.485 5.99 4.485 7 6 C3.63279613 4.60667426 2.0140476 3.0210714 0 0 Z " fill="#D52128" transform="translate(195,91)"/>
<path d="M0 0 C3.875 1.75 3.875 1.75 5 4 C5.16796875 5.875 5.16796875 5.875 5.1875 8 C5.20167969 8.70125 5.21585938 9.4025 5.23046875 10.125 C5 12 5 12 3 14 C2.92652344 12.98679687 2.92652344 12.98679687 2.8515625 11.953125 C2.77679688 11.06109375 2.70203125 10.1690625 2.625 9.25 C2.55539063 8.36828125 2.48578125 7.4865625 2.4140625 6.578125 C2.00149945 4.00933618 1.28839043 2.24158985 0 0 Z " fill="#DC333E" transform="translate(166,86)"/>
<path d="M0 0 C0.66 0 1.32 0 2 0 C2 2.64 2 5.28 2 8 C1.01 8.495 1.01 8.495 0 9 C-1.98 5.535 -1.98 5.535 -4 2 C-2.68 2 -1.36 2 0 2 C0 1.34 0 0.68 0 0 Z " fill="#F11C28" transform="translate(253,33)"/>
<path d="M0 0 C4.95 1.98 4.95 1.98 10 4 C10 4.33 10 4.66 10 5 C6.7 5 3.4 5 0 5 C0 3.35 0 1.7 0 0 Z " fill="#FED8DB" transform="translate(40,167)"/>
<path d="M0 0 C0.8125 1.6875 0.8125 1.6875 1 4 C-1.3125 6.75 -1.3125 6.75 -4 9 C-4.66 9 -5.32 9 -6 9 C-5.67 7.35 -5.34 5.7 -5 4 C-3.35 3.67 -1.7 3.34 0 3 C0 2.01 0 1.02 0 0 Z " fill="#EA2B34" transform="translate(257,159)"/>
<path d="M0 0 C1.65 1.65 3.3 3.3 5 5 C4.01 5.33 3.02 5.66 2 6 C1.67 6.66 1.34 7.32 1 8 C-0.32 6.68 -1.64 5.36 -3 4 C-2.01 3.34 -1.02 2.68 0 2 C0 1.34 0 0.68 0 0 Z " fill="#E61F29" transform="translate(219,75)"/>
<path d="M0 0 C2 2 2 2 2.1953125 3.9453125 C2.13020833 5.96354167 2.06510417 7.98177083 2 10 C0.125 10.625 0.125 10.625 -2 11 C-2.66 10.34 -3.32 9.68 -4 9 C-3.01 8.67 -2.02 8.34 -1 8 C-0.67 5.36 -0.34 2.72 0 0 Z " fill="#FA161E" transform="translate(221,87)"/>
<path d="M0 0 C3.33557632 2.9905167 5.15083921 5.93184627 7 10 C5.68 10 4.36 10 3 10 C2.01 6.7 1.02 3.4 0 0 Z " fill="#E62532" transform="translate(265,29)"/>
<path d="M0 0 C0.99 0.33 1.98 0.66 3 1 C0.36 3.97 -2.28 6.94 -5 10 C-5.33 9.01 -5.66 8.02 -6 7 C-5.34 7 -4.68 7 -4 7 C-3.71125 6.21625 -3.4225 5.4325 -3.125 4.625 C-2 2 -2 2 0 0 Z " fill="#FEE7E2" transform="translate(29,10)"/>
<path d="M0 0 C0.33 0.66 0.66 1.32 1 2 C-0.76227632 5.61730402 -2.64326421 7.80075931 -6 10 C-6.66 9.67 -7.32 9.34 -8 9 C-5.36 6.03 -2.72 3.06 0 0 Z " fill="#FED9D5" transform="translate(262,157)"/>
<path d="M0 0 C0.99 0 1.98 0 3 0 C2.67 1.65 2.34 3.3 2 5 C0.02 5 -1.96 5 -4 5 C-2.1875 2.5 -2.1875 2.5 0 0 Z " fill="#E23038" transform="translate(102,99)"/>
<path d="M0 0 C1.32 1.32 2.64 2.64 4 4 C-1.61 4 -7.22 4 -13 4 C-13 3.67 -13 3.34 -13 3 C-8.71 3 -4.42 3 0 3 C0 2.01 0 1.02 0 0 Z " fill="#FEE1E1" transform="translate(197,94)"/>
<path d="M0 0 C0.625 1.875 0.625 1.875 1 4 C-1 6 -1 6 -3.625 6.125 C-4.40875 6.08375 -5.1925 6.0425 -6 6 C-2.25 1.125 -2.25 1.125 0 0 Z " fill="#E41922" transform="translate(123,77)"/>
<path d="M0 0 C0.33 2.31 0.66 4.62 1 7 C-1.64 7 -4.28 7 -7 7 C-7 6.67 -7 6.34 -7 6 C-5.35 5.67 -3.7 5.34 -2 5 C-2.66 3.68 -3.32 2.36 -4 1 C-2 0 -2 0 0 0 Z " fill="#F2AEAF" transform="translate(221,102)"/>
<path d="M0 0 C0.33 0 0.66 0 1 0 C1.49230769 7.26153846 1.49230769 7.26153846 -1 11 C-1.66 11.66 -2.32 12.32 -3 13 C-2.45144652 8.428721 -1.58255197 4.32564205 0 0 Z " fill="#FDCCD1" transform="translate(24,55)"/>
<path d="M0 0 C1.41623216 -0.05447047 2.83308191 -0.09300508 4.25 -0.125 C5.03890625 -0.14820312 5.8278125 -0.17140625 6.640625 -0.1953125 C9.20731941 0.0171622 10.7916067 0.71345895 13 2 C13 2.66 13 3.32 13 4 C8.71 3.01 4.42 2.02 0 1 C0 0.67 0 0.34 0 0 Z " fill="#FFE4E6" transform="translate(224,1)"/>
<path d="M0 0 C0.33 0 0.66 0 1 0 C1.390625 5.859375 1.390625 5.859375 1 8 C-0.32 9.32 -1.64 10.64 -3 12 C-2.01 8.04 -1.02 4.08 0 0 Z " fill="#FDCACA" transform="translate(281,117)"/>
<path d="M0 0 C1.98 0.99 1.98 0.99 4 2 C4 2.66 4 3.32 4 4 C4.66 4 5.32 4 6 4 C5.67 6.31 5.34 8.62 5 11 C4.67 11 4.34 11 4 11 C3.79503906 10.37351562 3.59007813 9.74703125 3.37890625 9.1015625 C3.10949219 8.28429687 2.84007812 7.46703125 2.5625 6.625 C2.16224609 5.40683594 2.16224609 5.40683594 1.75390625 4.1640625 C1.04820271 1.98968201 1.04820271 1.98968201 0 0 Z " fill="#FFEBE9" transform="translate(61,73)"/>
<path d="M0 0 C0.66 0 1.32 0 2 0 C0.515 5.445 0.515 5.445 -1 11 C-1.33 11 -1.66 11 -2 11 C-2.28571429 3.57142857 -2.28571429 3.57142857 0 0 Z " fill="#E21F29" transform="translate(23,53)"/>
<path d="M0 0 C0.33 0 0.66 0 1 0 C1.6875 3.3125 1.6875 3.3125 2 7 C0.6875 8.9375 0.6875 8.9375 -1 10 C-1.66 10 -2.32 10 -3 10 C-2.01 6.7 -1.02 3.4 0 0 Z " fill="#E72C36" transform="translate(10,42)"/>
<path d="M0 0 C4.875 1.75 4.875 1.75 6 4 C3.6875 4.6875 3.6875 4.6875 1 5 C-0.8125 3.5625 -0.8125 3.5625 -2 2 C-1.34 2 -0.68 2 0 2 C0 1.34 0 0.68 0 0 Z " fill="#EF2129" transform="translate(244,9)"/>
<path d="M0 0 C-0.33 1.32 -0.66 2.64 -1 4 C-3.31 4 -5.62 4 -8 4 C-2.7826087 0 -2.7826087 0 0 0 Z " fill="#FED7D3" transform="translate(253,168)"/>
<path d="M0 0 C0.99 0.66 1.98 1.32 3 2 C2.67 3.65 2.34 5.3 2 7 C0.35 5.35 -1.3 3.7 -3 2 C-2.01 1.34 -1.02 0.68 0 0 Z " fill="#EA1F29" transform="translate(29,152)"/>
<path d="M0 0 C0.66 0 1.32 0 2 0 C1.5205537 4.21912747 0.83374881 6.79663178 -2 10 C-2 8.02 -2 6.04 -2 4 C-1.34 4 -0.68 4 0 4 C0 2.68 0 1.36 0 0 Z " fill="#E52329" transform="translate(275,129)"/>
<path d="M0 0 C1.32 0 2.64 0 4 0 C2.60667426 3.36720387 1.0210714 4.9859524 -2 7 C-2 5.68 -2 4.36 -2 3 C-1.01 3 -0.02 3 1 3 C0.67 2.01 0.34 1.02 0 0 Z " fill="#E6252B" transform="translate(43,20)"/>
<path d="M0 0 C2.31 1.98 4.62 3.96 7 6 C6.34 6.66 5.68 7.32 5 8 C0 2.25 0 2.25 0 0 Z " fill="#E4333B" transform="translate(37,141)"/>
<path d="M0 0 C0.33 0 0.66 0 1 0 C1.1953125 1.98567708 1.390625 3.97135417 1.5859375 5.95703125 C1.92665391 8.29988142 1.92665391 8.29988142 4 11 C3.01 11.33 2.02 11.66 1 12 C0 11 0 11 -0.09765625 8.49609375 C-0.08605469 7.48675781 -0.07445312 6.47742188 -0.0625 5.4375 C-0.05347656 4.42558594 -0.04445312 3.41367188 -0.03515625 2.37109375 C-0.02355469 1.58863281 -0.01195312 0.80617188 0 0 Z " fill="#E23941" transform="translate(180,86)"/>
<path d="M0 0 C2.0625 0.4375 2.0625 0.4375 4 1 C2.71086513 1.67154933 1.41859796 2.33708859 0.125 3 C-0.59429687 3.37125 -1.31359375 3.7425 -2.0546875 4.125 C-4 5 -4 5 -6 5 C-6 4.34 -6 3.68 -6 3 C-5.195625 2.690625 -4.39125 2.38125 -3.5625 2.0625 C-1.10919595 1.23664655 -1.10919595 1.23664655 0 0 Z " fill="#FED6D2" transform="translate(236,154)"/>
<path d="M0 0 C1.98 1.65 3.96 3.3 6 5 C5.34 5.66 4.68 6.32 4 7 C3.34 5.68 2.68 4.36 2 3 C1.01 3.33 0.02 3.66 -1 4 C-0.67 2.68 -0.34 1.36 0 0 Z " fill="#E93A3F" transform="translate(254,16)"/>
<path d="M0 0 C-2.97 1.32 -5.94 2.64 -9 4 C-9.66 3.34 -10.32 2.68 -11 2 C-4.5 -1.125 -4.5 -1.125 0 0 Z " fill="#FEC9CB" transform="translate(60,18)"/>
</svg>
